<svg width="388" height="43" viewBox="0 0 388 43" fill="none" xmlns="http://www.w3.org/2000/svg">
<path d="M244.598 41.4738V1.10938H260.21C270.016 1.10938 275.601 5.86933 275.601 14.2151C275.601 19.4511 273.348 23.1638 268.873 25.4486L275.982 41.5055H266.335L260.274 27.3843H253.451V41.5055H244.598V41.4738ZM253.419 19.6097H260.147C264.018 19.6097 266.271 17.6423 266.271 14.2151C266.271 10.788 264.145 8.97917 260.21 8.97917H253.451V19.6097H253.419Z" fill="#1A1A1A"/>
<path d="M282.107 41.4738V1.10938H307.748V9.2965H290.929V17.198H305.812V24.9409H290.929V33.2867H307.748V41.4738H282.107Z" fill="#1A1A1A"/>
<path d="M323.836 28.0507V41.4738H314.982V1.10938H331.357C339.607 1.10938 345.097 6.50399 345.097 14.5959C345.097 22.6878 339.576 28.0825 331.357 28.0825H323.836V28.0507ZM323.836 8.94744V20.1809H329.389C333.641 20.1809 335.768 18.3404 335.768 14.5642C335.768 10.788 333.641 8.94744 329.389 8.94744H323.836Z" fill="#1A1A1A"/>
<path d="M368.138 42.1376C356.46 42.1376 348.432 33.6332 348.432 21.289C348.432 8.94488 356.524 0.376953 368.201 0.376953C379.879 0.376953 388.003 8.88141 388.003 21.2256C388.003 33.5697 379.879 42.1376 368.138 42.1376ZM368.265 8.91314C361.728 8.91314 357.793 13.5462 357.793 21.2573C357.793 28.9684 361.728 33.6332 368.265 33.6332C374.802 33.6332 378.673 28.8732 378.673 21.2573C378.673 13.6414 374.738 8.91314 368.265 8.91314Z" fill="#1A1A1A"/>
<path d="M228.603 17.2634V25.4506H209.785L208.104 27.1641L203.978 31.2577L196.489 38.7467L190.682 32.9713L198.203 25.4506H187.572V17.2634H198.203L190.682 9.74269L196.489 3.93555L203.978 11.4563L209.785 17.2634H228.603Z" fill="url(#paint0_linear_252_1001)"/>
<path d="M213.879 21.3555L225.494 32.9381L219.686 38.7452L212.166 31.2562V41.8551H203.979V0.824219H212.166V11.4548L219.686 3.93406L225.494 9.74121L213.879 21.3555Z" fill="url(#paint1_linear_252_1001)"/>
<path d="M9.01219 20.4992L23.895 0.792969H34.5256L21.039 18.3731L34.6208 41.9825H24.2123L15.1367 26.0525L9.01219 34.0809V41.9825H0V0.792969H9.01219V20.4992Z" fill="#1A1A1A"/>
<path d="M39.1582 0.792969H48.1704V25.8938C48.1704 31.0663 50.9946 33.9223 56.0719 33.9223C61.1492 33.9223 64.1004 30.9711 64.1004 25.8938V0.792969H73.1126V26.4967C73.1126 36.3023 66.4169 42.6489 56.0719 42.6489C45.7269 42.6489 39.1582 36.3657 39.1582 26.4967V0.792969Z" fill="#1A1A1A"/>
<path d="M94.2782 0C103.132 0 108.685 4.88689 108.685 12.6932H99.7363C99.7363 9.80551 97.5784 8.02846 94.183 8.02846C90.5019 8.02846 88.1854 9.71031 88.1854 12.4394C88.1854 14.9463 89.4548 16.1839 92.3742 16.7868L98.5621 18.0561C105.924 19.5476 109.415 23.0699 109.415 29.5752C109.415 37.5402 103.195 42.7127 93.707 42.7127C84.2188 42.7127 78.5703 37.7623 78.5703 30.0195H87.519C87.519 33.0341 89.7403 34.6842 93.7387 34.6842C97.7371 34.6842 100.371 33.0658 100.371 30.4637C100.371 28.1789 99.3237 27.0048 96.5947 26.4654L90.3115 25.196C82.9495 23.7046 79.1732 19.5158 79.1732 12.7884C79.1732 5.33115 85.4564 0.0317331 94.3099 0.0317331L94.2782 0Z" fill="#1A1A1A"/>
<path d="M111.574 0.792969H143.974V9.13876H132.296V41.9825H123.284V9.13876H111.606V0.792969H111.574Z" fill="#1A1A1A"/>
<path d="M141.943 41.9825L156.636 0.792969H165.426L180.055 41.9825H170.471L167.584 33.2876H154.288L151.336 41.9825H141.943ZM156.921 25.7034H165.045L162.094 16.9134C161.65 15.5171 161.142 13.8987 160.983 12.915C160.825 13.867 160.38 15.4219 159.873 16.9134L156.921 25.7034Z" fill="#1A1A1A"/>
<defs>
<linearGradient id="paint0_linear_252_1001" x1="187.572" y1="21.357" x2="228.603" y2="21.357" gradientUnits="userSpaceOnUse">
<stop stop-color="#0049FF"/>
<stop offset="1" stop-color="#2F75F6"/>
</linearGradient>
<linearGradient id="paint1_linear_252_1001" x1="205.724" y1="21.3555" x2="222.352" y2="21.3555" gradientUnits="userSpaceOnUse">
<stop stop-color="#2F75F6"/>
<stop offset="1" stop-color="#0049FF"/>
</linearGradient>
</defs>
</svg>
